<?xml version="1.0" encoding="UTF-8"?>
<!DOCTYPE svg PUBLIC "-//W3C//DTD SVG 1.1//EN" "http://www.w3.org/Graphics/SVG/1.1/DTD/svg11.dtd">
<svg version="1.1" xmlns="http://www.w3.org/2000/svg" xmlns:xlink="http://www.w3.org/1999/xlink" x="0" y="0" width="1932" height="1221" viewBox="0, 0, 1932, 1221">
  <g id="Layer_2" transform="translate(12, 0)">
    <path d="M117.485,342.482 Q115.886,341.949 113.131,342.038 Q110.376,342.127 107.266,342.394 Q104.155,342.66 101.311,343.016 Q98.468,343.371 96.513,343.371 Q95.624,343.371 95.357,340.794 Q95.091,338.217 94.558,333.773 L119.618,331.996 Q120.151,325.775 120.329,323.109 Q120.507,320.443 120.418,318.577 Q120.329,316.711 120.24,314.312 Q120.151,311.912 120.151,306.758 Q124.772,306.047 127.172,306.313 Q129.571,306.58 130.46,307.646 Q131.349,308.713 131.26,310.757 Q131.171,312.801 130.727,315.822 Q130.282,318.844 130.016,323.109 Q129.749,327.375 130.282,332.707 L151.61,331.996 L151.61,340.705 Q150.188,340.705 147.167,340.883 Q144.145,341.061 140.68,341.238 Q137.214,341.416 134.281,341.594 Q131.349,341.771 129.927,342.305 Q128.505,348.703 126.905,355.99 Q125.306,363.277 124.772,370.387 Q124.239,377.496 125.128,383.628 Q126.017,389.76 129.571,393.759 Q133.126,397.758 139.702,399.269 Q146.278,400.779 157.12,398.291 Q156.765,400.957 155.076,402.646 Q153.388,404.334 151.166,405.312 Q148.944,406.289 146.456,406.733 Q143.968,407.178 142.013,407.178 Q132.948,407.178 127.616,403.89 Q122.284,400.602 119.618,395.27 Q116.952,389.938 116.241,383.095 Q115.53,376.252 115.797,369.143 Q116.063,362.033 116.774,355.102 Q117.485,348.17 117.485,342.482 z" fill="#FFFDFD"/>
    <path d="M170.45,285.074 L175.071,343.371 Q176.315,342.305 178.27,340.172 Q180.226,338.039 182.892,336.173 Q185.558,334.307 188.757,332.974 Q191.956,331.641 195.688,331.818 Q202.976,332.529 207.33,337.684 Q211.685,342.838 213.906,350.303 Q216.128,357.768 216.839,366.565 Q217.55,375.363 217.283,383.361 Q217.017,391.359 216.394,397.58 Q215.772,403.801 215.417,406.111 L209.019,405.223 Q209.019,403.623 209.107,400.157 Q209.196,396.691 209.374,391.981 Q209.552,387.271 209.552,382.117 Q209.552,376.963 209.641,372.431 Q209.729,367.898 209.641,364.344 Q209.552,360.789 209.374,359.367 Q209.552,354.391 207.419,349.77 Q205.286,345.148 201.731,342.749 Q198.177,340.35 193.2,341.149 Q188.224,341.949 182.536,348.17 Q177.56,355.635 175.249,362.833 Q172.938,370.031 172.227,377.052 Q171.517,384.072 171.694,391.448 Q171.872,398.824 171.694,407 L164.763,405.934 Q165.296,403.979 165.562,398.735 Q165.829,393.492 166.007,386.116 Q166.185,378.74 166.273,369.676 Q166.362,360.611 166.273,350.925 Q166.185,341.238 166.007,331.463 Q165.829,321.688 165.562,312.801 Q165.296,303.914 165.029,296.449 Q164.763,288.984 164.585,284.186 z" fill="#FFFDFD"/>
    <path d="M223.415,337.684 Q225.548,336.795 227.147,337.328 Q228.747,337.861 229.813,339.283 Q230.88,340.705 231.413,342.571 Q231.946,344.438 232.302,346.215 Q234.612,342.305 238.967,339.905 Q243.321,337.506 248.298,336.706 Q253.274,335.906 258.251,336.351 Q263.228,336.795 266.693,338.483 Q270.159,340.172 271.581,343.104 Q273.003,346.037 270.87,349.947 Q266.249,347.281 261.184,345.682 Q256.118,344.082 251.319,344.615 Q246.52,345.148 242.433,348.259 Q238.345,351.369 235.679,358.123 Q233.013,364.877 232.391,375.985 Q231.769,387.094 233.901,403.623 L227.147,403.623 Q227.147,403.623 226.881,400.69 Q226.614,397.758 226.348,392.959 Q226.081,388.16 225.637,382.295 Q225.192,376.43 224.837,370.387 Q224.481,364.344 224.215,358.745 Q223.948,353.146 223.593,349.059 Q223.593,348.525 223.504,346.926 Q223.415,345.326 223.415,343.46 Q223.415,341.594 223.415,339.994 Q223.415,338.395 223.415,337.684 z" fill="#FFFDFD"/>
    <path d="M287.399,338.039 Q289.532,338.039 291.043,337.861 Q292.554,337.684 293.62,339.639 Q294.153,347.637 294.864,355.901 Q295.575,364.166 296.286,372.52 Q296.997,380.873 297.264,389.315 Q297.53,397.758 297.353,405.756 Q297.353,406.822 296.819,407.089 Q296.286,407.355 295.309,407.267 Q294.331,407.178 292.998,407.089 Q291.665,407 290.065,407.355 z M277.091,306.225 Q277.091,304.98 277.269,303.47 Q277.446,301.959 278.068,300.715 Q278.69,299.471 279.668,298.582 Q280.645,297.693 282.067,297.693 Q284.2,297.693 286.333,297.871 Q288.466,298.049 290.421,298.671 Q292.376,299.293 293.62,300.626 Q294.864,301.959 294.864,304.447 Q294.864,308.713 291.665,312.001 Q288.466,315.289 283.845,315.289 Q280.29,315.289 278.69,312.534 Q277.091,309.779 277.091,306.225 z M287.399,307.113 Q286.866,307.113 286.866,308.002 Q286.866,308.891 287.399,308.891 Q288.11,308.891 288.11,308.002 Q288.11,307.113 287.399,307.113 z" fill="#FFFDFD"/>
    <path d="M303.04,328.441 L308.55,322.932 L347.651,394.025 L364.358,325.242 Q365.603,325.775 367.024,326.042 Q368.446,326.309 369.602,326.575 Q370.757,326.842 371.468,327.197 Q372.179,327.553 372.179,328.441 Q369.868,339.816 367.824,349.77 Q365.78,359.723 363.47,369.143 Q361.159,378.562 358.493,388.071 Q355.827,397.58 352.272,407.889 L345.341,407.889 z" fill="#FFFDFD"/>
    <path d="M376.622,365.232 Q376.622,359.9 378.933,353.413 Q381.243,346.926 385.242,341.327 Q389.241,335.729 394.307,331.907 Q399.372,328.086 404.882,328.086 Q407.903,328.086 410.836,329.33 Q413.769,330.574 416.523,332.618 Q419.278,334.662 421.5,337.239 Q423.722,339.816 424.966,342.66 Q426.21,345.504 426.299,348.17 Q426.388,350.836 424.788,352.791 L387.286,359.723 Q386.575,359.9 386.042,361.411 Q385.509,362.922 385.153,365.232 Q384.798,367.543 384.531,370.298 Q384.265,373.053 384.087,375.63 Q383.909,378.207 383.909,380.251 Q383.909,382.295 383.909,383.361 Q383.909,388.338 386.309,391.448 Q388.708,394.559 392.44,396.158 Q396.173,397.758 400.883,398.291 Q405.593,398.824 410.214,398.824 Q414.835,398.824 418.923,398.469 Q423.011,398.113 425.677,398.113 Q425.677,398.824 425.144,399.713 Q424.61,400.602 423.899,401.401 Q423.188,402.201 422.478,402.823 Q421.767,403.445 421.589,403.623 Q420.167,403.979 417.234,404.601 Q414.302,405.223 411.014,405.756 Q407.726,406.289 404.882,406.645 Q402.038,407 400.972,407 Q395.462,408.066 391.374,406.822 Q387.286,405.578 384.442,402.557 Q381.599,399.535 379.821,395.181 Q378.044,390.826 377.155,385.85 Q376.267,380.873 376.178,375.541 Q376.089,370.209 376.622,365.232 z M402.394,334.84 Q400.794,334.84 398.217,336.528 Q395.64,338.217 393.418,340.794 Q391.196,343.371 389.686,346.304 Q388.175,349.236 388.708,351.369 Q393.329,351.902 398.306,351.191 Q403.282,350.48 407.37,348.97 Q411.458,347.459 414.124,345.415 Q416.79,343.371 416.701,341.238 Q416.612,339.105 413.324,337.417 Q410.036,335.729 402.394,334.84 z" fill="#FFFDFD"/>
    <path d="M523.253,406.111 Q524.852,394.736 525.386,387.271 Q525.919,379.807 525.83,374.386 Q525.741,368.965 525.563,364.788 Q525.386,360.611 525.563,355.99 Q523.253,355.99 520.587,357.057 Q517.921,358.123 515.077,359.456 Q512.233,360.789 509.478,361.855 Q506.724,362.922 504.413,362.922 Q503.524,362.922 503.258,362.211 Q502.991,361.5 502.813,360.434 Q502.636,359.367 502.547,358.212 Q502.458,357.057 501.925,355.812 L525.919,345.504 Q522.542,318.844 523.519,300.981 Q524.497,283.119 528.674,272.188 Q532.85,261.258 539.693,256.192 Q546.536,251.127 554.89,249.883 Q561.466,249.883 567.42,252.46 Q573.374,255.037 577.906,259.48 Q582.438,263.924 585.193,269.789 Q587.948,275.654 587.948,282.23 Q585.104,282.23 582.705,280.364 Q580.306,278.498 578.173,275.654 Q576.04,272.811 573.907,269.522 Q571.774,266.234 569.197,263.391 Q566.62,260.547 563.599,258.681 Q560.577,256.814 556.489,256.814 Q552.934,257.525 549.469,259.747 Q546.003,261.969 543.07,266.057 Q540.138,270.145 537.827,276.454 Q535.516,282.764 534.272,292.006 Q533.028,301.248 532.939,313.778 Q532.85,326.309 534.45,342.482 L556.489,342.305 Q557.022,344.615 557.111,346.304 Q557.2,347.992 554.534,349.059 Q552.579,349.77 549.557,350.392 Q546.536,351.014 543.426,351.458 Q540.315,351.902 537.649,352.169 Q534.983,352.436 533.917,352.613 Q533.739,360.967 534.095,368.521 Q534.45,376.074 534.628,382.917 Q534.806,389.76 534.539,395.714 Q534.272,401.668 532.673,407.178 Q532.495,407.178 531.695,407.178 Q530.895,407.178 530.007,407.178 Q529.118,407.178 528.318,407.178 Q527.518,407.178 527.518,407.178 Q526.807,407.178 526.008,407.355 Q525.208,407.533 524.586,407.622 Q523.964,407.711 523.608,407.444 Q523.253,407.178 523.253,406.111 z" fill="#FFFDFD"/>
    <path d="M570.708,374.475 Q570.708,370.387 571.419,364.966 Q572.13,359.545 573.729,354.035 Q575.329,348.525 577.728,343.193 Q580.128,337.861 583.505,333.685 Q586.882,329.508 591.325,326.931 Q595.768,324.354 601.278,324.354 Q606.966,324.354 611.853,328.264 Q616.741,332.174 620.207,338.395 Q623.673,344.615 625.45,352.258 Q627.227,359.9 626.872,367.188 Q626.872,377.852 622.784,386.205 Q618.696,394.559 612.387,399.713 Q606.077,404.867 598.879,406.645 Q591.681,408.422 585.371,405.667 Q579.061,402.912 574.885,395.27 Q570.708,387.627 570.708,374.475 z M577.284,375.186 Q577.817,386.027 581.016,391.893 Q584.216,397.758 588.748,399.624 Q593.28,401.49 598.612,399.713 Q603.944,397.936 608.565,393.403 Q613.186,388.871 616.474,382.028 Q619.763,375.186 620.118,366.654 Q620.474,360.256 619.141,354.213 Q617.807,348.17 615.408,343.46 Q613.009,338.75 609.543,335.995 Q606.077,333.24 601.634,333.24 Q597.368,333.24 593.991,335.373 Q590.614,337.506 587.859,341.149 Q585.104,344.793 583.149,349.414 Q581.194,354.035 579.861,358.656 Q578.528,363.277 577.906,367.632 Q577.284,371.986 577.284,375.186 z" fill="#FFFDFD"/>
    <path d="M634.692,337.684 Q636.825,336.795 638.425,337.328 Q640.024,337.861 641.091,339.283 Q642.157,340.705 642.69,342.571 Q643.224,344.438 643.579,346.215 Q645.89,342.305 650.244,339.905 Q654.599,337.506 659.575,336.706 Q664.552,335.906 669.528,336.351 Q674.505,336.795 677.971,338.483 Q681.436,340.172 682.858,343.104 Q684.28,346.037 682.147,349.947 Q677.526,347.281 672.461,345.682 Q667.395,344.082 662.597,344.615 Q657.798,345.148 653.71,348.259 Q649.622,351.369 646.956,358.123 Q644.29,364.877 643.668,375.985 Q643.046,387.094 645.179,403.623 L638.425,403.623 Q638.425,403.623 638.158,400.69 Q637.891,397.758 637.625,392.959 Q637.358,388.16 636.914,382.295 Q636.47,376.43 636.114,370.387 Q635.759,364.344 635.492,358.745 Q635.225,353.146 634.87,349.059 Q634.87,348.525 634.781,346.926 Q634.692,345.326 634.692,343.46 Q634.692,341.594 634.692,339.994 Q634.692,338.395 634.692,337.684 z" fill="#FFFDFD"/>
    <path d="M762.839,268.9 Q765.327,269.256 767.193,270.233 Q769.059,271.211 770.126,273.699 Q770.126,277.076 770.392,283.03 Q770.659,288.984 770.926,296.805 Q771.192,304.625 771.548,313.689 Q771.903,322.754 772.259,331.996 Q772.614,341.238 772.881,350.303 Q773.147,359.367 773.414,367.188 Q773.681,375.008 773.858,381.051 Q774.036,387.094 774.214,390.293 Q774.214,390.648 774.125,391.537 Q774.036,392.426 773.947,393.67 Q773.858,394.914 773.769,396.069 Q773.681,397.225 773.681,397.758 Q773.503,398.824 773.503,400.335 Q773.503,401.846 773.147,403.268 Q772.792,404.689 771.992,405.845 Q771.192,407 769.415,407.178 L766.393,403.445 Q766.216,403.268 765.949,396.78 Q765.682,390.293 765.238,379.896 Q764.794,369.498 764.438,356.435 Q764.083,343.371 763.639,330.041 Q763.194,316.711 762.839,304.447 Q762.483,292.184 762.306,283.297 Q762.306,282.586 762.394,280.453 Q762.483,278.32 762.572,276.099 Q762.661,273.877 762.75,271.833 Q762.839,269.789 762.839,268.9 z" fill="#FFFDFD"/>
    <path d="M792.698,338.039 Q794.831,338.039 796.342,337.861 Q797.852,337.684 798.919,339.639 Q799.452,347.637 800.163,355.901 Q800.874,364.166 801.585,372.52 Q802.296,380.873 802.562,389.315 Q802.829,397.758 802.651,405.756 Q802.651,406.822 802.118,407.089 Q801.585,407.355 800.607,407.267 Q799.63,407.178 798.297,407.089 Q796.964,407 795.364,407.355 z M782.39,306.225 Q782.39,304.98 782.567,303.47 Q782.745,301.959 783.367,300.715 Q783.989,299.471 784.967,298.582 Q785.944,297.693 787.366,297.693 Q789.499,297.693 791.632,297.871 Q793.765,298.049 795.72,298.671 Q797.675,299.293 798.919,300.626 Q800.163,301.959 800.163,304.447 Q800.163,308.713 796.964,312.001 Q793.765,315.289 789.143,315.289 Q785.589,315.289 783.989,312.534 Q782.39,309.779 782.39,306.225 z M792.698,307.113 Q792.165,307.113 792.165,308.002 Q792.165,308.891 792.698,308.891 Q793.409,308.891 793.409,308.002 Q793.409,307.113 792.698,307.113 z" fill="#FFFDFD"/>
    <path d="M829.667,406.111 Q831.266,394.736 831.8,387.271 Q832.333,379.807 832.244,374.386 Q832.155,368.965 831.977,364.788 Q831.8,360.611 831.977,355.99 Q829.667,355.99 827.001,357.057 Q824.335,358.123 821.491,359.456 Q818.647,360.789 815.892,361.855 Q813.138,362.922 810.827,362.922 Q809.938,362.922 809.672,362.211 Q809.405,361.5 809.227,360.434 Q809.05,359.367 808.961,358.212 Q808.872,357.057 808.339,355.812 L832.333,345.504 Q828.956,318.844 829.933,300.981 Q830.911,283.119 835.088,272.188 Q839.265,261.258 846.107,256.192 Q852.95,251.127 861.304,249.883 Q867.88,249.883 873.834,252.46 Q879.788,255.037 884.32,259.48 Q888.852,263.924 891.607,269.789 Q894.362,275.654 894.362,282.23 Q891.518,282.23 889.119,280.364 Q886.72,278.498 884.587,275.654 Q882.454,272.811 880.321,269.522 Q878.188,266.234 875.611,263.391 Q873.034,260.547 870.013,258.681 Q866.991,256.814 862.903,256.814 Q859.349,257.525 855.883,259.747 Q852.417,261.969 849.484,266.057 Q846.552,270.145 844.241,276.454 Q841.931,282.764 840.686,292.006 Q839.442,301.248 839.353,313.778 Q839.265,326.309 840.864,342.482 L862.903,342.305 Q863.436,344.615 863.525,346.304 Q863.614,347.992 860.948,349.059 Q858.993,349.77 855.972,350.392 Q852.95,351.014 849.84,351.458 Q846.729,351.902 844.063,352.169 Q841.397,352.436 840.331,352.613 Q840.153,360.967 840.509,368.521 Q840.864,376.074 841.042,382.917 Q841.22,389.76 840.953,395.714 Q840.686,401.668 839.087,407.178 Q838.909,407.178 838.109,407.178 Q837.309,407.178 836.421,407.178 Q835.532,407.178 834.732,407.178 Q833.932,407.178 833.932,407.178 Q833.222,407.178 832.422,407.355 Q831.622,407.533 831,407.622 Q830.378,407.711 830.022,407.444 Q829.667,407.178 829.667,406.111 z" fill="#FFFDFD"/>
    <path d="M877.477,365.232 Q877.477,359.9 879.788,353.413 Q882.099,346.926 886.098,341.327 Q890.097,335.729 895.162,331.907 Q900.227,328.086 905.737,328.086 Q908.759,328.086 911.691,329.33 Q914.624,330.574 917.379,332.618 Q920.134,334.662 922.355,337.239 Q924.577,339.816 925.821,342.66 Q927.065,345.504 927.154,348.17 Q927.243,350.836 925.643,352.791 L888.142,359.723 Q887.431,359.9 886.897,361.411 Q886.364,362.922 886.009,365.232 Q885.653,367.543 885.387,370.298 Q885.12,373.053 884.942,375.63 Q884.765,378.207 884.765,380.251 Q884.765,382.295 884.765,383.361 Q884.765,388.338 887.164,391.448 Q889.563,394.559 893.296,396.158 Q897.028,397.758 901.738,398.291 Q906.448,398.824 911.069,398.824 Q915.69,398.824 919.778,398.469 Q923.866,398.113 926.532,398.113 Q926.532,398.824 925.999,399.713 Q925.466,400.602 924.755,401.401 Q924.044,402.201 923.333,402.823 Q922.622,403.445 922.444,403.623 Q921.022,403.979 918.09,404.601 Q915.157,405.223 911.869,405.756 Q908.581,406.289 905.737,406.645 Q902.893,407 901.827,407 Q896.317,408.066 892.229,406.822 Q888.142,405.578 885.298,402.557 Q882.454,399.535 880.677,395.181 Q878.899,390.826 878.011,385.85 Q877.122,380.873 877.033,375.541 Q876.944,370.209 877.477,365.232 z M903.249,334.84 Q901.649,334.84 899.072,336.528 Q896.495,338.217 894.273,340.794 Q892.052,343.371 890.541,346.304 Q889.03,349.236 889.563,351.369 Q894.185,351.902 899.161,351.191 Q904.138,350.48 908.226,348.97 Q912.313,347.459 914.979,345.415 Q917.645,343.371 917.557,341.238 Q917.468,339.105 914.18,337.417 Q910.892,335.729 903.249,334.84 z" fill="#FFFDFD"/>
    <path d="M286.89,486.99 Q287.33,487.54 287.385,488.365 Q287.44,489.19 287.11,489.74 Q286.56,490.95 285.24,490.62 Q282.93,490.07 280.4,490.18 Q277.87,490.29 275.34,492.16 Q272.81,494.03 271.38,497.605 Q269.95,501.18 269.95,505.03 Q269.95,508.77 271.765,511.465 Q273.58,514.16 276.44,515.37 Q278.2,516.14 280.4,516.25 Q282.6,516.36 284.855,516.085 Q287.11,515.81 289.31,515.205 Q291.51,514.6 293.49,513.83 Q294.15,513.61 294.755,513.94 Q295.36,514.27 295.58,514.82 Q296.13,516.25 295.03,517.68 Q293.71,519.11 291.51,520.21 Q289.31,521.31 286.67,521.97 Q284.03,522.63 281.28,522.685 Q278.53,522.74 276.11,522.08 Q272.7,521.2 270.335,519.495 Q267.97,517.79 266.43,515.535 Q264.89,513.28 264.12,510.695 Q263.35,508.11 263.24,505.36 Q263.02,498.76 265.825,493.48 Q268.63,488.2 273.69,485.67 Q277.43,483.8 281.225,484.185 Q285.02,484.57 286.89,486.99 z" fill="#FFFDFD"/>
    <path d="M340.02,483.47 Q341.56,492.38 342.33,501.235 Q343.1,510.09 343.54,518.89 Q343.65,519.88 343.32,520.595 Q342.99,521.31 342.495,521.86 Q342,522.41 341.505,522.74 Q341.01,523.07 340.68,523.07 Q339.47,523.07 338.315,521.915 Q337.16,520.76 336.94,518.89 Q336.61,514.71 336.28,510.53 Q335.95,506.35 335.51,502.17 Q323.96,505.36 311.09,507.78 Q311.53,510.2 311.97,512.62 Q312.41,515.04 312.96,517.46 Q313.07,517.9 313.125,518.89 Q313.18,519.88 313.015,520.98 Q312.85,522.08 312.355,523.015 Q311.86,523.95 310.87,524.39 Q309.99,524.5 309,523.84 Q308.01,523.18 307.68,522.52 Q306.36,519.11 305.205,514.38 Q304.05,509.65 303.225,504.425 Q302.4,499.2 302.07,493.81 Q301.74,488.42 301.96,483.47 Q302.18,481.82 303.225,481.105 Q304.27,480.39 305.15,480.39 Q306.14,480.39 306.855,481.05 Q307.57,481.71 308.01,482.7 Q308.45,483.69 308.67,484.68 Q308.89,485.67 308.89,486.33 Q309,489.85 309.22,493.26 Q309.44,496.67 309.99,500.08 Q315.6,499.31 322.2,497.935 Q328.8,496.56 334.63,494.8 Q334.41,492.27 334.08,489.685 Q333.75,487.1 333.42,484.57 Q333.42,482.7 334.575,481.27 Q335.73,479.84 336.94,479.84 Q337.82,479.84 338.755,480.72 Q339.69,481.6 340.02,483.47 z" fill="#FFFDFD"/>
    <path d="M364.33,517.9 Q364.44,518.34 364.44,519.165 Q364.44,519.99 364.11,520.815 Q363.78,521.64 363.175,522.245 Q362.57,522.85 361.47,522.85 Q359.05,521.31 357.4,518.78 Q356.52,515.48 355.805,511.19 Q355.09,506.9 354.65,502.225 Q354.21,497.55 354.045,492.71 Q353.88,487.87 353.99,483.36 Q353.99,482.59 354.155,481.38 Q354.32,480.17 354.76,479.015 Q355.2,477.86 355.86,477.035 Q356.52,476.21 357.73,476.21 Q359.16,476.21 360.04,477.09 Q360.92,477.97 360.92,479.95 Q360.81,484.35 360.975,489.355 Q361.14,494.36 361.58,499.42 Q362.02,504.48 362.735,509.265 Q363.45,514.05 364.33,517.9 z" fill="#FFFDFD"/>
    <path d="M382.48,525.49 Q382.15,521.42 381.985,516.25 Q381.82,511.08 381.82,505.635 Q381.82,500.19 381.875,494.91 Q381.93,489.63 382.15,485.34 Q382.15,484.24 383.195,483.635 Q384.24,483.03 384.9,483.14 Q386.88,483.36 387.595,484.515 Q388.31,485.67 388.53,487.76 Q388.42,491.28 388.365,494.8 Q388.31,498.32 388.42,501.84 Q393.37,500.96 396.725,498.21 Q400.08,495.46 401.51,491.94 Q402.06,490.62 402.335,488.75 Q402.61,486.88 402.39,484.955 Q402.17,483.03 401.345,481.325 Q400.52,479.62 398.87,478.63 Q396.45,477.2 393.59,477.09 Q390.73,476.98 387.705,477.915 Q384.68,478.85 381.765,480.83 Q378.85,482.81 376.32,485.56 Q376.65,487.21 375.88,488.475 Q375.11,489.74 373.68,490.29 Q372.8,490.51 371.59,489.355 Q370.38,488.2 370.38,486.99 Q370.38,482.59 372.855,479.345 Q375.33,476.1 379.07,473.9 Q382.81,471.7 387.1,470.6 Q391.39,469.5 395.02,469.5 Q400.41,469.5 404.04,472.635 Q407.67,475.77 408.99,480.5 Q411.3,488.75 407.835,495.35 Q404.37,501.95 396.56,506.79 Q402.28,510.31 407.285,513.5 Q412.29,516.69 417.35,520.43 Q418.01,521.09 418.835,522.355 Q419.66,523.62 418.56,526.15 Q417.9,527.69 416.305,527.855 Q414.71,528.02 413.17,526.92 Q410.75,524.94 407.725,522.795 Q404.7,520.65 401.4,518.505 Q398.1,516.36 394.8,514.325 Q391.5,512.29 388.53,510.53 Q388.64,514.93 388.695,519.275 Q388.75,523.62 388.97,527.8 Q388.97,529.34 388.09,529.945 Q387.21,530.55 385.89,530.55 Q385.23,530.44 384.68,529.835 Q384.13,529.23 383.635,528.405 Q383.14,527.58 382.81,526.755 Q382.48,525.93 382.48,525.49 z" fill="#FFFDFD"/>
    <path d="M462.78,504.04 Q462.12,507.12 460.415,509.925 Q458.71,512.73 456.51,515.15 Q454.31,517.57 451.725,519.33 Q449.14,521.09 446.5,522.08 Q441.66,523.84 436.875,523.235 Q432.09,522.63 428.35,518.89 Q425.82,515.81 424.775,511.96 Q423.73,508.11 423.785,504.095 Q423.84,500.08 424.885,496.34 Q425.93,492.6 427.58,489.63 Q429.56,486.11 432.31,483.8 Q435.06,481.49 438.36,481.05 Q439.24,480.83 439.79,481.49 Q440.34,482.15 440.34,483.03 Q441.44,481.93 443.75,481.38 Q446.06,480.83 448.92,481.27 Q454.2,481.93 457.28,484.46 Q460.36,486.99 461.845,490.345 Q463.33,493.7 463.385,497.385 Q463.44,501.07 462.78,504.04 z M438.8,488.86 Q436.6,489.85 435.115,491.775 Q433.63,493.7 432.695,496.12 Q431.76,498.54 431.485,501.345 Q431.21,504.15 431.43,506.79 Q431.76,510.64 433.74,513.115 Q435.72,515.59 439.9,515.59 Q442.32,515.59 444.685,514.655 Q447.05,513.72 449.03,512.18 Q451.01,510.64 452.66,508.495 Q454.31,506.35 455.3,504.04 Q455.85,502.83 456.18,501.015 Q456.51,499.2 456.4,497.275 Q456.29,495.35 455.52,493.59 Q454.75,491.83 453.1,490.62 Q450.79,488.97 447.6,488.64 Q444.41,488.31 440.89,490.07 Q440.23,490.51 439.405,490.235 Q438.58,489.96 438.8,488.86 z" fill="#FFFDFD"/>
    <path d="M490.5,527.47 Q490.39,528.68 489.785,529.725 Q489.18,530.77 487.97,530.66 Q486.1,530.55 484.725,529.23 Q483.35,527.91 483.35,527.03 Q483.46,517.46 482.745,507.505 Q482.03,497.55 480.49,487.65 Q480.49,487.21 480.71,486.66 Q480.93,486.22 481.26,485.615 Q481.59,485.01 482.36,484.46 Q483.13,484.13 484.065,484.57 Q485,485.01 485.88,485.89 Q486.76,486.77 487.42,487.87 Q488.08,488.97 488.41,489.96 Q488.74,492.16 489.07,494.8 Q489.4,497.44 489.62,500.3 Q492.26,498.87 494.68,497.11 Q497.1,495.35 498.915,493.26 Q500.73,491.17 501.72,488.915 Q502.71,486.66 502.38,484.24 Q502.16,482.37 500.73,480.83 Q499.3,479.29 496.33,478.52 Q489.51,476.98 484.12,478.355 Q478.73,479.73 473.78,482.92 Q472.35,484.02 471.14,484.24 Q469.93,484.46 469.05,484.13 Q468.17,483.8 467.73,483.14 Q467.29,482.48 467.29,481.82 Q467.51,479.29 469.765,477.255 Q472.02,475.22 474.55,473.79 Q477.85,472.14 482.69,471.04 Q487.53,469.94 492.425,470.215 Q497.32,470.49 501.61,472.58 Q505.9,474.67 508.21,479.29 Q510.3,484.79 509.145,489.19 Q507.99,493.59 505.02,497.22 Q502.05,500.85 497.98,503.875 Q493.91,506.9 490.28,509.43 Q490.5,514.27 490.555,518.89 Q490.61,523.51 490.5,527.47 z" fill="#FFFDFD"/>
    <path d="M524.71,525.49 Q524.38,521.42 524.215,516.25 Q524.05,511.08 524.05,505.635 Q524.05,500.19 524.105,494.91 Q524.16,489.63 524.38,485.34 Q524.38,484.24 525.425,483.635 Q526.47,483.03 527.13,483.14 Q529.11,483.36 529.825,484.515 Q530.54,485.67 530.76,487.76 Q530.65,491.28 530.595,494.8 Q530.54,498.32 530.65,501.84 Q535.6,500.96 538.955,498.21 Q542.31,495.46 543.74,491.94 Q544.29,490.62 544.565,488.75 Q544.84,486.88 544.62,484.955 Q544.4,483.03 543.575,481.325 Q542.75,479.62 541.1,478.63 Q538.68,477.2 535.82,477.09 Q532.96,476.98 529.935,477.915 Q526.91,478.85 523.995,480.83 Q521.08,482.81 518.55,485.56 Q518.88,487.21 518.11,488.475 Q517.34,489.74 515.91,490.29 Q515.03,490.51 513.82,489.355 Q512.61,488.2 512.61,486.99 Q512.61,482.59 515.085,479.345 Q517.56,476.1 521.3,473.9 Q525.04,471.7 529.33,470.6 Q533.62,469.5 537.25,469.5 Q542.64,469.5 546.27,472.635 Q549.9,475.77 551.22,480.5 Q553.53,488.75 550.065,495.35 Q546.6,501.95 538.79,506.79 Q544.51,510.31 549.515,513.5 Q554.52,516.69 559.58,520.43 Q560.24,521.09 561.065,522.355 Q561.89,523.62 560.79,526.15 Q560.13,527.69 558.535,527.855 Q556.94,528.02 555.4,526.92 Q552.98,524.94 549.955,522.795 Q546.93,520.65 543.63,518.505 Q540.33,516.36 537.03,514.325 Q533.73,512.29 530.76,510.53 Q530.87,514.93 530.925,519.275 Q530.98,523.62 531.2,527.8 Q531.2,529.34 530.32,529.945 Q529.44,530.55 528.12,530.55 Q527.46,530.44 526.91,529.835 Q526.36,529.23 525.865,528.405 Q525.37,527.58 525.04,526.755 Q524.71,525.93 524.71,525.49 z" fill="#FFFDFD"/>
    <path d="M571.13,527.36 Q570.58,529.23 569.7,530.715 Q568.82,532.2 567.83,532.42 Q565.74,532.97 564.64,531.76 Q563.54,530.55 563.76,528.68 Q564.64,522.08 566.62,514.765 Q568.6,507.45 571.24,500.135 Q573.88,492.82 577.015,485.945 Q580.15,479.07 583.45,473.46 Q584,472.58 584.715,472.415 Q585.43,472.25 585.98,472.47 Q586.53,472.03 587.3,471.7 Q588.07,471.37 588.84,471.37 Q589.17,471.37 589.555,471.48 Q589.94,471.59 590.38,472.14 Q590.82,472.69 591.425,473.735 Q592.03,474.78 592.91,476.76 Q594.45,482.37 596.485,488.31 Q598.52,494.25 600.72,500.19 Q601.05,500.08 601.325,500.025 Q601.6,499.97 601.93,499.86 Q603.14,499.75 604.68,499.97 Q606.22,500.19 606.77,501.51 Q607.43,503.16 606.55,504.37 Q605.67,505.58 603.36,506.79 Q604.79,510.31 606.22,513.665 Q607.65,517.02 609.19,520.21 Q609.3,520.76 609.52,521.915 Q609.74,523.07 609.795,524.225 Q609.85,525.38 609.63,526.37 Q609.41,527.36 608.75,527.69 Q607.98,528.02 607.155,527.58 Q606.33,527.14 605.56,526.425 Q604.79,525.71 604.185,524.885 Q603.58,524.06 603.25,523.4 Q601.38,519.77 599.675,516.085 Q597.97,512.4 596.43,508.66 Q591.81,509.54 586.365,510.2 Q580.92,510.86 575.64,511.08 Q574.43,515.26 573.275,519.275 Q572.12,523.29 571.13,527.36 z M586.75,481.16 Q581.69,492.49 577.95,503.82 Q585.32,503.6 593.68,501.95 Q589.72,491.94 586.75,481.16 z" fill="#FFFDFD"/>
    <path d="M639.66,486.99 Q640.1,487.54 640.155,488.365 Q640.21,489.19 639.88,489.74 Q639.33,490.95 638.01,490.62 Q635.7,490.07 633.17,490.18 Q630.64,490.29 628.11,492.16 Q625.58,494.03 624.15,497.605 Q622.72,501.18 622.72,505.03 Q622.72,508.77 624.535,511.465 Q626.35,514.16 629.21,515.37 Q630.97,516.14 633.17,516.25 Q635.37,516.36 637.625,516.085 Q639.88,515.81 642.08,515.205 Q644.28,514.6 646.26,513.83 Q646.92,513.61 647.525,513.94 Q648.13,514.27 648.35,514.82 Q648.9,516.25 647.8,517.68 Q646.48,519.11 644.28,520.21 Q642.08,521.31 639.44,521.97 Q636.8,522.63 634.05,522.685 Q631.3,522.74 628.88,522.08 Q625.47,521.2 623.105,519.495 Q620.74,517.79 619.2,515.535 Q617.66,513.28 616.89,510.695 Q616.12,508.11 616.01,505.36 Q615.79,498.76 618.595,493.48 Q621.4,488.2 626.46,485.67 Q630.2,483.8 633.995,484.185 Q637.79,484.57 639.66,486.99 z" fill="#FFFDFD"/>
    <path d="M699.94,483.47 Q688.61,482.92 678.16,485.23 Q667.71,487.54 657.48,491.5 Q654.84,492.49 653.465,491.28 Q652.09,490.07 652.09,488.86 Q652.86,486.77 654.84,485.45 Q677.39,474.45 699.94,477.31 Q701.04,477.64 701.755,478.905 Q702.47,480.17 702.25,481.05 Q702.03,482.15 701.59,482.865 Q701.15,483.58 699.94,483.47 z M684.32,521.86 Q684.32,523.07 683.495,524.005 Q682.67,524.94 681.46,525.16 Q679.26,525.49 678.6,524.39 Q677.94,523.29 677.83,521.86 Q677.72,514.16 677.555,506.515 Q677.39,498.87 676.84,491.17 Q676.84,490.73 676.73,490.125 Q676.62,489.52 676.73,488.915 Q676.84,488.31 677.225,487.87 Q677.61,487.43 678.49,487.21 Q681.02,486.77 682.12,488.035 Q683.22,489.3 683.22,490.51 Q684.1,498.43 684.32,506.24 Q684.54,514.05 684.32,521.86 z" fill="#FFFDFD"/>
    <path d="M721.61,517.9 Q721.72,518.34 721.72,519.165 Q721.72,519.99 721.39,520.815 Q721.06,521.64 720.455,522.245 Q719.85,522.85 718.75,522.85 Q716.33,521.31 714.68,518.78 Q713.8,515.48 713.085,511.19 Q712.37,506.9 711.93,502.225 Q711.49,497.55 711.325,492.71 Q711.16,487.87 711.27,483.36 Q711.27,482.59 711.435,481.38 Q711.6,480.17 712.04,479.015 Q712.48,477.86 713.14,477.035 Q713.8,476.21 715.01,476.21 Q716.44,476.21 717.32,477.09 Q718.2,477.97 718.2,479.95 Q718.09,484.35 718.255,489.355 Q718.42,494.36 718.86,499.42 Q719.3,504.48 720.015,509.265 Q720.73,514.05 721.61,517.9 z" fill="#FFFDFD"/>
    <path d="M754.83,486.99 Q755.27,487.54 755.325,488.365 Q755.38,489.19 755.05,489.74 Q754.5,490.95 753.18,490.62 Q750.87,490.07 748.34,490.18 Q745.81,490.29 743.28,492.16 Q740.75,494.03 739.32,497.605 Q737.89,501.18 737.89,505.03 Q737.89,508.77 739.705,511.465 Q741.52,514.16 744.38,515.37 Q746.14,516.14 748.34,516.25 Q750.54,516.36 752.795,516.085 Q755.05,515.81 757.25,515.205 Q759.45,514.6 761.43,513.83 Q762.09,513.61 762.695,513.94 Q763.3,514.27 763.52,514.82 Q764.07,516.25 762.97,517.68 Q761.65,519.11 759.45,520.21 Q757.25,521.31 754.61,521.97 Q751.97,522.63 749.22,522.685 Q746.47,522.74 744.05,522.08 Q740.64,521.2 738.275,519.495 Q735.91,517.79 734.37,515.535 Q732.83,513.28 732.06,510.695 Q731.29,508.11 731.18,505.36 Q730.96,498.76 733.765,493.48 Q736.57,488.2 741.63,485.67 Q745.37,483.8 749.165,484.185 Q752.96,484.57 754.83,486.99 z" fill="#FFFDFD"/>
    <path d="M-12,0 L0,0 L0,0 L-12,0 L-12,0 z" fill="#FFFDFD"/>
  </g>
</svg>
